<?xml version="1.0" encoding="iso-8859-1"?>
<!-- Generator: Adobe Illustrator 19.0.0, SVG Export Plug-In . SVG Version: 6.00 Build 0)  -->
<svg version="1.1" id="Capa_1" xmlns="http://www.w3.org/2000/svg" xmlns:xlink="http://www.w3.org/1999/xlink" x="0px" y="0px"
	 viewBox="0 0 472 472" style="enable-background:new 0 0 472 472;" xml:space="preserve">
<rect x="124" y="40" style="fill:#2E5166;" width="224" height="352"/>
<path style="fill:#3F708D;" d="M308,104v8h8v248H156v-80h40v-8c0-0.8,0-1.52-0.08-2.32C194.72,253.12,180.88,240,164,240h-8V72h160
	v10.88C311.04,88.56,308,95.92,308,104z"/>
<g>
	<path style="fill:#2E5166;" d="M212,104L212,104c0,13.255-10.745,24-24,24h0v40l0,0c27.805-23.171,68.195-23.171,96,0l0,0v-40h0
		c-13.255,0-24-10.745-24-24v0H212z"/>
	<path style="fill:#2E5166;" d="M284,264v40c-6.64,0-12.64,2.72-16.96,7.04c-4.32,4.32-7.04,10.32-7.04,16.96h-48
		c0-13.28-10.72-24-24-24v-24h8v-8c0-0.8,0-1.52-0.08-2.32c12.24,7.84,26.16,11.76,40.08,11.76C253.04,281.44,270.08,275.6,284,264z
		"/>
	<path style="fill:#2E5166;" d="M292,208h-8v-16c0-4.418-3.582-8-8-8h-40c-4.418,0-8,3.582-8,8v40h-24v-32h8v-16h-16
		c-4.418,0-8,3.582-8,8v16h-8v16h8v16c0,4.418,3.582,8,8,8h40c4.418,0,8-3.582,8-8v-40h24v32h-8v16h16c4.418,0,8-3.582,8-8v-16h8
		V208z"/>
</g>
<path style="fill:#3F708D;" d="M276,40h-16V16h-48v24h-16V8c0-4.418,3.582-8,8-8h64c4.418,0,8,3.582,8,8V40z"/>
<path style="fill:#FE946F;" d="M348,72h-8c-9.6,0-18.16,4.24-24,10.88c-4.96,5.68-8,13.04-8,21.12v8h112V72H348z"/>
<polygon style="fill:#FFB398;" points="420,32 404,32 380,8 324,8 292,40 348,40 348,72 420,72 "/>
<rect x="420" y="72" style="fill:#E15D2D;" width="48" height="40"/>
<rect x="420" y="32" style="fill:#F88756;" width="48" height="40"/>
<polygon style="fill:#FE946F;" points="236,432 276,472 420,472 420,432 "/>
<path style="fill:#FFB398;" d="M420,392h-32v-40h-8c-17.673,0-32,14.327-32,32v8H236v40h184V392z"/>
<rect x="420" y="392" style="fill:#F88756;" width="48" height="40"/>
<rect x="420" y="432" style="fill:#E15D2D;" width="48" height="40"/>
<polygon style="fill:#FFB398;" points="156,240 156,176 124,176 100,200 60,200 60,240 "/>
<path style="fill:#FE946F;" d="M195.92,269.68C194.72,253.12,180.88,240,164,240h-8H60v40h136v-8
	C196,271.2,196,270.48,195.92,269.68z"/>
<rect x="4" y="200" style="fill:#3F708D;" width="56" height="40"/>
<rect x="4" y="240" style="fill:#2E5166;" width="56" height="40"/>
<g>
</g>
<g>
</g>
<g>
</g>
<g>
</g>
<g>
</g>
<g>
</g>
<g>
</g>
<g>
</g>
<g>
</g>
<g>
</g>
<g>
</g>
<g>
</g>
<g>
</g>
<g>
</g>
<g>
</g>
</svg>
